<mxfile host="app.diagrams.net" agent="Mozilla/5.0 (Macintosh; Intel Mac OS X 10_15_7) AppleWebKit/537.36 (KHTML, like Gecko) Chrome/134.0.0.0 Safari/537.36" version="26.1.0">
  <diagram id="hyaQ1ew4vB8XEgwiYJFJ" name="第 1 页">
    <mxGraphModel dx="2390" dy="2437" grid="1" gridSize="10" guides="1" tooltips="1" connect="1" arrows="1" fold="1" page="1" pageScale="1" pageWidth="827" pageHeight="1169" math="1" shadow="0">
      <root>
        <mxCell id="0" />
        <mxCell id="1" parent="0" />
        <mxCell id="2" value="&lt;font style=&quot;font-size: 24px;&quot; face=&quot;宋体&quot;&gt;\(prev\)&lt;/font&gt;" style="rounded=0;whiteSpace=wrap;html=1;strokeWidth=2;fillColor=none;" parent="1" vertex="1">
          <mxGeometry x="190" y="165" width="400" height="60" as="geometry" />
        </mxCell>
        <mxCell id="uFdlLDDgqtluDwvb-6mF-2" value="&lt;span style=&quot;font-family: 宋体; font-size: 24px;&quot;&gt;\(receiver\)&lt;/span&gt;" style="text;html=1;align=center;verticalAlign=middle;whiteSpace=wrap;rounded=0;" vertex="1" parent="1">
          <mxGeometry x="80" y="180" width="60" height="30" as="geometry" />
        </mxCell>
        <mxCell id="uFdlLDDgqtluDwvb-6mF-3" value="&lt;font face=&quot;宋体&quot; style=&quot;font-size: 24px;&quot;&gt;\(next\)&lt;/font&gt;" style="rounded=0;whiteSpace=wrap;html=1;strokeWidth=2;" vertex="1" parent="1">
          <mxGeometry x="680" y="165" width="280" height="60" as="geometry" />
        </mxCell>
        <mxCell id="uFdlLDDgqtluDwvb-6mF-4" value="&lt;span style=&quot;font-family: 宋体; font-size: 24px;&quot;&gt;\(sender\)&lt;/span&gt;" style="text;html=1;align=center;verticalAlign=middle;whiteSpace=wrap;rounded=0;" vertex="1" parent="1">
          <mxGeometry x="80" y="360" width="60" height="30" as="geometry" />
        </mxCell>
        <mxCell id="uFdlLDDgqtluDwvb-6mF-5" value="&lt;span style=&quot;font-size: 24px;&quot;&gt;&lt;font face=&quot;Times New Roman&quot;&gt;TAIC&lt;/font&gt;&lt;/span&gt;" style="text;html=1;align=center;verticalAlign=middle;whiteSpace=wrap;rounded=0;" vertex="1" parent="1">
          <mxGeometry x="80" y="270" width="60" height="30" as="geometry" />
        </mxCell>
        <mxCell id="uFdlLDDgqtluDwvb-6mF-9" style="edgeStyle=orthogonalEdgeStyle;rounded=0;orthogonalLoop=1;jettySize=auto;html=1;exitX=1;exitY=0;exitDx=0;exitDy=0;entryX=0;entryY=1;entryDx=0;entryDy=0;strokeWidth=2;dashed=1;" edge="1" parent="1" source="uFdlLDDgqtluDwvb-6mF-6" target="uFdlLDDgqtluDwvb-6mF-8">
          <mxGeometry relative="1" as="geometry" />
        </mxCell>
        <mxCell id="uFdlLDDgqtluDwvb-6mF-10" value="&lt;font face=&quot;宋体&quot; style=&quot;font-size: 24px;&quot;&gt;发送通知&lt;/font&gt;" style="edgeLabel;html=1;align=center;verticalAlign=middle;resizable=0;points=[];labelBackgroundColor=none;" vertex="1" connectable="0" parent="uFdlLDDgqtluDwvb-6mF-9">
          <mxGeometry x="-0.1" y="1" relative="1" as="geometry">
            <mxPoint x="-55" y="-3" as="offset" />
          </mxGeometry>
        </mxCell>
        <mxCell id="uFdlLDDgqtluDwvb-6mF-6" value="" style="rounded=0;whiteSpace=wrap;html=1;strokeWidth=2;fillColor=none;" vertex="1" parent="1">
          <mxGeometry x="160" y="345" width="120" height="60" as="geometry" />
        </mxCell>
        <mxCell id="uFdlLDDgqtluDwvb-6mF-8" value="&lt;font face=&quot;宋体&quot; style=&quot;font-size: 24px;&quot;&gt;唤醒接收方&lt;/font&gt;&lt;div&gt;&lt;font face=&quot;宋体&quot; style=&quot;font-size: 24px;&quot;&gt;任务\(next\)&lt;/font&gt;&lt;/div&gt;" style="rounded=0;whiteSpace=wrap;html=1;strokeWidth=2;" vertex="1" parent="1">
          <mxGeometry x="280" y="255" width="220" height="60" as="geometry" />
        </mxCell>
        <mxCell id="uFdlLDDgqtluDwvb-6mF-23" style="edgeStyle=orthogonalEdgeStyle;rounded=0;orthogonalLoop=1;jettySize=auto;html=1;exitX=1;exitY=1;exitDx=0;exitDy=0;entryX=0;entryY=0;entryDx=0;entryDy=0;strokeWidth=2;dashed=1;" edge="1" parent="1" source="uFdlLDDgqtluDwvb-6mF-13" target="uFdlLDDgqtluDwvb-6mF-22">
          <mxGeometry relative="1" as="geometry" />
        </mxCell>
        <mxCell id="uFdlLDDgqtluDwvb-6mF-24" value="&lt;font face=&quot;宋体&quot; style=&quot;font-size: 24px;&quot;&gt;陷入&lt;/font&gt;" style="edgeLabel;html=1;align=center;verticalAlign=middle;resizable=0;points=[];labelBackgroundColor=none;" vertex="1" connectable="0" parent="uFdlLDDgqtluDwvb-6mF-23">
          <mxGeometry x="-0.3167" y="2" relative="1" as="geometry">
            <mxPoint x="-32" y="5" as="offset" />
          </mxGeometry>
        </mxCell>
        <mxCell id="uFdlLDDgqtluDwvb-6mF-13" value="&lt;font style=&quot;font-size: 24px;&quot; face=&quot;宋体&quot;&gt;\(prev\)&lt;/font&gt;" style="rounded=0;whiteSpace=wrap;html=1;strokeWidth=2;fillColor=none;" vertex="1" parent="1">
          <mxGeometry x="190" y="-150" width="290" height="60" as="geometry" />
        </mxCell>
        <mxCell id="uFdlLDDgqtluDwvb-6mF-14" value="&lt;span style=&quot;font-family: 宋体; font-size: 24px;&quot;&gt;\(receiver\)&lt;/span&gt;" style="text;html=1;align=center;verticalAlign=middle;whiteSpace=wrap;rounded=0;" vertex="1" parent="1">
          <mxGeometry x="80" y="-135" width="60" height="30" as="geometry" />
        </mxCell>
        <mxCell id="uFdlLDDgqtluDwvb-6mF-16" value="&lt;span style=&quot;font-family: 宋体; font-size: 24px;&quot;&gt;\(sender\)&lt;/span&gt;" style="text;html=1;align=center;verticalAlign=middle;whiteSpace=wrap;rounded=0;" vertex="1" parent="1">
          <mxGeometry x="80" y="45" width="60" height="30" as="geometry" />
        </mxCell>
        <mxCell id="uFdlLDDgqtluDwvb-6mF-17" value="&lt;span style=&quot;font-size: 24px;&quot;&gt;&lt;font face=&quot;Times New Roman&quot;&gt;kernel&lt;/font&gt;&lt;/span&gt;" style="text;html=1;align=center;verticalAlign=middle;whiteSpace=wrap;rounded=0;" vertex="1" parent="1">
          <mxGeometry x="80" y="-43.8" width="60" height="30" as="geometry" />
        </mxCell>
        <mxCell id="uFdlLDDgqtluDwvb-6mF-18" style="edgeStyle=orthogonalEdgeStyle;rounded=0;orthogonalLoop=1;jettySize=auto;html=1;exitX=1;exitY=0;exitDx=0;exitDy=0;entryX=0;entryY=1;entryDx=0;entryDy=0;strokeWidth=2;dashed=1;" edge="1" parent="1" source="uFdlLDDgqtluDwvb-6mF-20" target="uFdlLDDgqtluDwvb-6mF-21">
          <mxGeometry relative="1" as="geometry" />
        </mxCell>
        <mxCell id="uFdlLDDgqtluDwvb-6mF-19" value="&lt;font face=&quot;宋体&quot; style=&quot;font-size: 24px;&quot;&gt;发送信号&lt;/font&gt;" style="edgeLabel;html=1;align=center;verticalAlign=middle;resizable=0;points=[];labelBackgroundColor=none;" vertex="1" connectable="0" parent="uFdlLDDgqtluDwvb-6mF-18">
          <mxGeometry x="-0.1" y="1" relative="1" as="geometry">
            <mxPoint x="-53" y="-1" as="offset" />
          </mxGeometry>
        </mxCell>
        <mxCell id="uFdlLDDgqtluDwvb-6mF-20" value="" style="rounded=0;whiteSpace=wrap;html=1;strokeWidth=2;fillColor=none;" vertex="1" parent="1">
          <mxGeometry x="160" y="30" width="120" height="60" as="geometry" />
        </mxCell>
        <mxCell id="uFdlLDDgqtluDwvb-6mF-21" value="&lt;font style=&quot;font-size: 24px;&quot; face=&quot;宋体&quot;&gt;更新接收方进程控制块&lt;/font&gt;" style="rounded=0;whiteSpace=wrap;html=1;strokeWidth=2;fillColor=none;" vertex="1" parent="1">
          <mxGeometry x="280" y="-58.8" width="140" height="60" as="geometry" />
        </mxCell>
        <mxCell id="uFdlLDDgqtluDwvb-6mF-22" value="&lt;div&gt;&lt;font style=&quot;font-size: 24px;&quot; face=&quot;宋体&quot;&gt;内核处理&lt;/font&gt;&lt;/div&gt;" style="rounded=0;whiteSpace=wrap;html=1;strokeWidth=2;fillColor=none;" vertex="1" parent="1">
          <mxGeometry x="480" y="-60" width="180" height="60" as="geometry" />
        </mxCell>
        <mxCell id="uFdlLDDgqtluDwvb-6mF-67" style="edgeStyle=orthogonalEdgeStyle;rounded=0;orthogonalLoop=1;jettySize=auto;html=1;exitX=1;exitY=0;exitDx=0;exitDy=0;entryX=0;entryY=1;entryDx=0;entryDy=0;strokeWidth=2;dashed=1;" edge="1" parent="1" source="uFdlLDDgqtluDwvb-6mF-25" target="uFdlLDDgqtluDwvb-6mF-26">
          <mxGeometry relative="1" as="geometry" />
        </mxCell>
        <mxCell id="uFdlLDDgqtluDwvb-6mF-25" value="&lt;font face=&quot;宋体&quot;&gt;&lt;span style=&quot;font-size: 24px;&quot;&gt;检查信号&lt;/span&gt;&lt;/font&gt;" style="rounded=0;whiteSpace=wrap;html=1;strokeWidth=2;fillColor=none;" vertex="1" parent="1">
          <mxGeometry x="660" y="-59.8" width="120" height="60" as="geometry" />
        </mxCell>
        <mxCell id="uFdlLDDgqtluDwvb-6mF-29" style="edgeStyle=orthogonalEdgeStyle;rounded=0;orthogonalLoop=1;jettySize=auto;html=1;exitX=1;exitY=1;exitDx=0;exitDy=0;entryX=0;entryY=0;entryDx=0;entryDy=0;dashed=1;strokeWidth=2;" edge="1" parent="1" source="uFdlLDDgqtluDwvb-6mF-26" target="uFdlLDDgqtluDwvb-6mF-28">
          <mxGeometry relative="1" as="geometry" />
        </mxCell>
        <mxCell id="uFdlLDDgqtluDwvb-6mF-30" value="&lt;font face=&quot;宋体&quot; style=&quot;font-size: 24px;&quot;&gt;\(sig\_return\)&lt;/font&gt;" style="edgeLabel;html=1;align=center;verticalAlign=middle;resizable=0;points=[];labelBackgroundColor=none;" vertex="1" connectable="0" parent="uFdlLDDgqtluDwvb-6mF-29">
          <mxGeometry x="0.0333" y="1" relative="1" as="geometry">
            <mxPoint x="-68" y="-1" as="offset" />
          </mxGeometry>
        </mxCell>
        <mxCell id="uFdlLDDgqtluDwvb-6mF-26" value="&lt;font face=&quot;宋体&quot; style=&quot;font-size: 24px;&quot;&gt;处理信号（\(next\)）&lt;/font&gt;" style="rounded=0;whiteSpace=wrap;html=1;strokeWidth=2;" vertex="1" parent="1">
          <mxGeometry x="780" y="-151" width="280" height="60" as="geometry" />
        </mxCell>
        <mxCell id="uFdlLDDgqtluDwvb-6mF-32" style="edgeStyle=orthogonalEdgeStyle;rounded=0;orthogonalLoop=1;jettySize=auto;html=1;exitX=1;exitY=0;exitDx=0;exitDy=0;entryX=0;entryY=1;entryDx=0;entryDy=0;strokeWidth=2;dashed=1;" edge="1" parent="1" source="uFdlLDDgqtluDwvb-6mF-28" target="uFdlLDDgqtluDwvb-6mF-31">
          <mxGeometry relative="1" as="geometry" />
        </mxCell>
        <mxCell id="uFdlLDDgqtluDwvb-6mF-28" value="&lt;div&gt;&lt;font style=&quot;font-size: 24px;&quot; face=&quot;宋体&quot;&gt;内核处理&lt;/font&gt;&lt;/div&gt;" style="rounded=0;whiteSpace=wrap;html=1;strokeWidth=2;fillColor=none;" vertex="1" parent="1">
          <mxGeometry x="1060" y="-59.8" width="120" height="60" as="geometry" />
        </mxCell>
        <mxCell id="uFdlLDDgqtluDwvb-6mF-31" value="&lt;font face=&quot;宋体&quot;&gt;&lt;span style=&quot;font-size: 24px;&quot;&gt;\(prev\)&lt;/span&gt;&lt;/font&gt;" style="rounded=0;whiteSpace=wrap;html=1;strokeWidth=2;fillColor=none;" vertex="1" parent="1">
          <mxGeometry x="1180" y="-151" width="110" height="60" as="geometry" />
        </mxCell>
        <mxCell id="uFdlLDDgqtluDwvb-6mF-33" value="" style="rounded=0;whiteSpace=wrap;html=1;strokeWidth=2;fillColor=#666666;" vertex="1" parent="1">
          <mxGeometry x="590" y="165" width="90" height="60" as="geometry" />
        </mxCell>
        <mxCell id="uFdlLDDgqtluDwvb-6mF-35" value="&lt;font style=&quot;font-size: 24px;&quot; face=&quot;宋体&quot;&gt;\(prev\)&lt;/font&gt;" style="rounded=0;whiteSpace=wrap;html=1;strokeWidth=2;fillColor=none;" vertex="1" parent="1">
          <mxGeometry x="190" y="475" width="310" height="60" as="geometry" />
        </mxCell>
        <mxCell id="uFdlLDDgqtluDwvb-6mF-36" value="&lt;span style=&quot;font-family: 宋体; font-size: 24px;&quot;&gt;\(receiver\)&lt;/span&gt;" style="text;html=1;align=center;verticalAlign=middle;whiteSpace=wrap;rounded=0;" vertex="1" parent="1">
          <mxGeometry x="80" y="490" width="60" height="30" as="geometry" />
        </mxCell>
        <mxCell id="uFdlLDDgqtluDwvb-6mF-37" value="&lt;font face=&quot;宋体&quot; style=&quot;font-size: 24px;&quot;&gt;\(next\)&lt;/font&gt;" style="rounded=0;whiteSpace=wrap;html=1;strokeWidth=2;" vertex="1" parent="1">
          <mxGeometry x="750" y="475" width="280" height="60" as="geometry" />
        </mxCell>
        <mxCell id="uFdlLDDgqtluDwvb-6mF-38" value="&lt;span style=&quot;font-family: 宋体; font-size: 24px;&quot;&gt;\(sender\)&lt;/span&gt;" style="text;html=1;align=center;verticalAlign=middle;whiteSpace=wrap;rounded=0;" vertex="1" parent="1">
          <mxGeometry x="80" y="670" width="60" height="30" as="geometry" />
        </mxCell>
        <mxCell id="uFdlLDDgqtluDwvb-6mF-39" value="&lt;span style=&quot;font-size: 24px;&quot;&gt;&lt;font face=&quot;Times New Roman&quot;&gt;TAIC&lt;/font&gt;&lt;/span&gt;" style="text;html=1;align=center;verticalAlign=middle;whiteSpace=wrap;rounded=0;" vertex="1" parent="1">
          <mxGeometry x="80" y="580.58" width="60" height="30" as="geometry" />
        </mxCell>
        <mxCell id="uFdlLDDgqtluDwvb-6mF-40" style="edgeStyle=orthogonalEdgeStyle;rounded=0;orthogonalLoop=1;jettySize=auto;html=1;exitX=1;exitY=0;exitDx=0;exitDy=0;entryX=0;entryY=1;entryDx=0;entryDy=0;strokeWidth=2;dashed=1;" edge="1" parent="1" source="uFdlLDDgqtluDwvb-6mF-42" target="uFdlLDDgqtluDwvb-6mF-43">
          <mxGeometry relative="1" as="geometry" />
        </mxCell>
        <mxCell id="uFdlLDDgqtluDwvb-6mF-41" value="&lt;font face=&quot;宋体&quot; style=&quot;font-size: 24px;&quot;&gt;发送通知&lt;/font&gt;" style="edgeLabel;html=1;align=center;verticalAlign=middle;resizable=0;points=[];labelBackgroundColor=none;" vertex="1" connectable="0" parent="uFdlLDDgqtluDwvb-6mF-40">
          <mxGeometry x="-0.1" y="1" relative="1" as="geometry">
            <mxPoint x="-55" y="-2" as="offset" />
          </mxGeometry>
        </mxCell>
        <mxCell id="uFdlLDDgqtluDwvb-6mF-42" value="" style="rounded=0;whiteSpace=wrap;html=1;strokeWidth=2;fillColor=none;" vertex="1" parent="1">
          <mxGeometry x="160" y="655" width="120" height="60" as="geometry" />
        </mxCell>
        <mxCell id="uFdlLDDgqtluDwvb-6mF-45" style="edgeStyle=orthogonalEdgeStyle;rounded=0;orthogonalLoop=1;jettySize=auto;html=1;exitX=1;exitY=0;exitDx=0;exitDy=0;entryX=1;entryY=1;entryDx=0;entryDy=0;strokeWidth=2;dashed=1;" edge="1" parent="1" source="uFdlLDDgqtluDwvb-6mF-43" target="uFdlLDDgqtluDwvb-6mF-35">
          <mxGeometry relative="1" as="geometry" />
        </mxCell>
        <mxCell id="uFdlLDDgqtluDwvb-6mF-46" value="&lt;font face=&quot;宋体&quot; style=&quot;font-size: 24px;&quot;&gt;中断&lt;/font&gt;" style="edgeLabel;html=1;align=center;verticalAlign=middle;resizable=0;points=[];labelBackgroundColor=none;" vertex="1" connectable="0" parent="uFdlLDDgqtluDwvb-6mF-45">
          <mxGeometry x="0.05" y="1" relative="1" as="geometry">
            <mxPoint x="-34" as="offset" />
          </mxGeometry>
        </mxCell>
        <mxCell id="uFdlLDDgqtluDwvb-6mF-43" value="&lt;font face=&quot;宋体&quot; style=&quot;font-size: 24px;&quot;&gt;唤醒接收方&lt;/font&gt;&lt;div&gt;&lt;font face=&quot;宋体&quot; style=&quot;font-size: 24px;&quot;&gt;任务\(next\)&lt;/font&gt;&lt;/div&gt;" style="rounded=0;whiteSpace=wrap;html=1;strokeWidth=2;" vertex="1" parent="1">
          <mxGeometry x="280" y="565.5799999999999" width="220" height="60" as="geometry" />
        </mxCell>
        <mxCell id="uFdlLDDgqtluDwvb-6mF-44" value="" style="rounded=0;whiteSpace=wrap;html=1;strokeWidth=2;fillColor=#666666;" vertex="1" parent="1">
          <mxGeometry x="660" y="475" width="90" height="60" as="geometry" />
        </mxCell>
        <mxCell id="uFdlLDDgqtluDwvb-6mF-47" value="&lt;font face=&quot;宋体&quot; style=&quot;font-size: 24px;&quot;&gt;保存&lt;/font&gt;&lt;div&gt;&lt;font face=&quot;宋体&quot; style=&quot;font-size: 24px;&quot;&gt;\(prev\)上下文&lt;/font&gt;&lt;/div&gt;" style="rounded=0;whiteSpace=wrap;html=1;strokeWidth=2;" vertex="1" parent="1">
          <mxGeometry x="500" y="475" width="160" height="60" as="geometry" />
        </mxCell>
        <mxCell id="uFdlLDDgqtluDwvb-6mF-48" value="" style="endArrow=none;dashed=1;html=1;rounded=0;strokeWidth=2;" edge="1" parent="1">
          <mxGeometry width="50" height="50" relative="1" as="geometry">
            <mxPoint x="40" y="110" as="sourcePoint" />
            <mxPoint x="1040" y="110" as="targetPoint" />
          </mxGeometry>
        </mxCell>
        <mxCell id="uFdlLDDgqtluDwvb-6mF-49" value="" style="endArrow=none;dashed=1;html=1;rounded=0;strokeWidth=2;" edge="1" parent="1">
          <mxGeometry width="50" height="50" relative="1" as="geometry">
            <mxPoint x="40" y="430" as="sourcePoint" />
            <mxPoint x="1040" y="430" as="targetPoint" />
          </mxGeometry>
        </mxCell>
        <mxCell id="uFdlLDDgqtluDwvb-6mF-50" value="&lt;font style=&quot;font-size: 24px;&quot; face=&quot;Times New Roman&quot;&gt;(a)&lt;/font&gt;" style="text;html=1;align=center;verticalAlign=middle;whiteSpace=wrap;rounded=0;" vertex="1" parent="1">
          <mxGeometry x="40" y="-180" width="60" height="30" as="geometry" />
        </mxCell>
        <mxCell id="uFdlLDDgqtluDwvb-6mF-51" value="&lt;font style=&quot;font-size: 24px;&quot; face=&quot;Times New Roman&quot;&gt;(b)&lt;/font&gt;" style="text;html=1;align=center;verticalAlign=middle;whiteSpace=wrap;rounded=0;" vertex="1" parent="1">
          <mxGeometry x="40" y="130" width="60" height="30" as="geometry" />
        </mxCell>
        <mxCell id="uFdlLDDgqtluDwvb-6mF-52" value="&lt;font style=&quot;font-size: 24px;&quot; face=&quot;Times New Roman&quot;&gt;(c)&lt;/font&gt;" style="text;html=1;align=center;verticalAlign=middle;whiteSpace=wrap;rounded=0;" vertex="1" parent="1">
          <mxGeometry x="40" y="445" width="60" height="30" as="geometry" />
        </mxCell>
        <mxCell id="uFdlLDDgqtluDwvb-6mF-60" value="" style="rounded=0;whiteSpace=wrap;html=1;fillColor=none;strokeWidth=2;dashed=1;" vertex="1" parent="1">
          <mxGeometry x="1000" y="200" width="320" height="190" as="geometry" />
        </mxCell>
        <mxCell id="uFdlLDDgqtluDwvb-6mF-61" value="&lt;span style=&quot;color: rgb(0, 0, 0); font-size: 24px; font-style: normal; font-variant-ligatures: normal; font-variant-caps: normal; font-weight: 400; letter-spacing: normal; orphans: 2; text-align: center; text-indent: 0px; text-transform: none; widows: 2; word-spacing: 0px; -webkit-text-stroke-width: 0px; white-space: nowrap; background-color: rgb(251, 251, 251); text-decoration-thickness: initial; text-decoration-style: initial; text-decoration-color: initial; float: none; display: inline !important;&quot;&gt;&lt;font face=&quot;宋体&quot;&gt;前一个任务&lt;/font&gt;&lt;/span&gt;" style="text;whiteSpace=wrap;html=1;strokeColor=none;" vertex="1" parent="1">
          <mxGeometry x="1110" y="210" width="130" height="40" as="geometry" />
        </mxCell>
        <mxCell id="uFdlLDDgqtluDwvb-6mF-62" value="&lt;span style=&quot;color: rgb(0, 0, 0); font-size: 24px; font-style: normal; font-variant-ligatures: normal; font-variant-caps: normal; font-weight: 400; letter-spacing: normal; orphans: 2; text-align: center; text-indent: 0px; text-transform: none; widows: 2; word-spacing: 0px; -webkit-text-stroke-width: 0px; white-space: nowrap; background-color: rgb(251, 251, 251); text-decoration-thickness: initial; text-decoration-style: initial; text-decoration-color: initial; float: none; display: inline !important;&quot;&gt;&lt;font face=&quot;宋体&quot;&gt;被唤醒任务&lt;/font&gt;&lt;/span&gt;" style="text;whiteSpace=wrap;html=1;strokeColor=none;" vertex="1" parent="1">
          <mxGeometry x="1110" y="260" width="130" height="40" as="geometry" />
        </mxCell>
        <mxCell id="uFdlLDDgqtluDwvb-6mF-63" value="&lt;span style=&quot;font-family: 宋体; font-size: 24px;&quot;&gt;\(prev\)&lt;/span&gt;" style="rounded=0;whiteSpace=wrap;html=1;strokeWidth=2;strokeColor=none;fillColor=none;" vertex="1" parent="1">
          <mxGeometry x="1020" y="210" width="70" height="40" as="geometry" />
        </mxCell>
        <mxCell id="uFdlLDDgqtluDwvb-6mF-64" value="&lt;span style=&quot;font-family: 宋体; font-size: 24px;&quot;&gt;\(next\)&lt;/span&gt;" style="rounded=0;whiteSpace=wrap;html=1;strokeWidth=2;strokeColor=none;fillColor=none;" vertex="1" parent="1">
          <mxGeometry x="1020" y="260" width="70" height="40" as="geometry" />
        </mxCell>
        <mxCell id="uFdlLDDgqtluDwvb-6mF-65" value="" style="rounded=0;whiteSpace=wrap;html=1;strokeWidth=2;fillColor=#666666;strokeColor=none;" vertex="1" parent="1">
          <mxGeometry x="1020" y="310" width="70" height="40" as="geometry" />
        </mxCell>
        <mxCell id="uFdlLDDgqtluDwvb-6mF-66" value="&lt;span style=&quot;color: rgb(0, 0, 0); font-size: 24px; font-style: normal; font-variant-ligatures: normal; font-variant-caps: normal; font-weight: 400; letter-spacing: normal; orphans: 2; text-align: center; text-indent: 0px; text-transform: none; widows: 2; word-spacing: 0px; -webkit-text-stroke-width: 0px; white-space: nowrap; background-color: rgb(251, 251, 251); text-decoration-thickness: initial; text-decoration-style: initial; text-decoration-color: initial; float: none; display: inline !important;&quot;&gt;&lt;font face=&quot;宋体&quot;&gt;从队列中取出任务&lt;/font&gt;&lt;/span&gt;&lt;div&gt;&lt;span style=&quot;color: rgb(0, 0, 0); font-size: 24px; font-style: normal; font-variant-ligatures: normal; font-variant-caps: normal; font-weight: 400; letter-spacing: normal; orphans: 2; text-align: center; text-indent: 0px; text-transform: none; widows: 2; word-spacing: 0px; -webkit-text-stroke-width: 0px; white-space: nowrap; background-color: rgb(251, 251, 251); text-decoration-thickness: initial; text-decoration-style: initial; text-decoration-color: initial; float: none; display: inline !important;&quot;&gt;&lt;font face=&quot;宋体&quot;&gt;并恢复任务上下文&lt;/font&gt;&lt;/span&gt;&lt;/div&gt;" style="text;whiteSpace=wrap;html=1;strokeColor=none;" vertex="1" parent="1">
          <mxGeometry x="1110" y="310" width="200" height="70" as="geometry" />
        </mxCell>
      </root>
    </mxGraphModel>
  </diagram>
</mxfile>
